<svg width="280" height="233" viewBox="0 0 280 233" fill="none" xmlns="http://www.w3.org/2000/svg">
<path d="M246 18C246 95.3199 183.32 158 106 158C28.6801 158 -34 95.3199 -34 18C-34 -59.3199 28.6801 -122 106 -122C183.32 -122 246 -59.3199 246 18ZM11.6815 18C11.6815 70.0907 53.9093 112.318 106 112.318C158.091 112.318 200.318 70.0907 200.318 18C200.318 -34.0907 158.091 -76.3185 106 -76.3185C53.9093 -76.3185 11.6815 -34.0907 11.6815 18Z" fill="#4690CD" fill-opacity="0.23"/>
<path d="M280 93C280 170.32 217.32 233 140 233C62.6801 233 0 170.32 0 93C0 15.6801 62.6801 -47 140 -47C217.32 -47 280 15.6801 280 93ZM45.8863 93C45.8863 144.978 88.0224 187.114 140 187.114C191.978 187.114 234.114 144.978 234.114 93C234.114 41.0224 191.978 -1.11375 140 -1.11375C88.0224 -1.11375 45.8863 41.0224 45.8863 93Z" fill="#4690CD" fill-opacity="0.23"/>
</svg>
