<svg width="164" height="258" viewBox="0 0 164 258" fill="none" xmlns="http://www.w3.org/2000/svg">
<path d="M280 140C280 217.32 217.32 280 140 280C62.6801 280 0 217.32 0 140C0 62.6801 62.6801 0 140 0C217.32 0 280 62.6801 280 140ZM53.0671 140C53.0671 188.012 91.9883 226.933 140 226.933C188.012 226.933 226.933 188.012 226.933 140C226.933 91.9883 188.012 53.0671 140 53.0671C91.9883 53.0671 53.0671 91.9883 53.0671 140Z" fill="#4690CD" fill-opacity="0.23"/>
<path d="M318 235C318 312.32 255.32 375 178 375C100.68 375 38 312.32 38 235C38 157.68 100.68 95 178 95C255.32 95 318 157.68 318 235ZM94.6661 235C94.6661 281.024 131.976 318.334 178 318.334C224.024 318.334 261.334 281.024 261.334 235C261.334 188.976 224.024 151.666 178 151.666C131.976 151.666 94.6661 188.976 94.6661 235Z" fill="#4690CD" fill-opacity="0.23"/>
</svg>
